<?xml version="1.0" encoding="UTF-8" standalone="no"?>
<!-- Created with Inkscape (http://www.inkscape.org/) -->

<svg
   width="296.99997mm"
   height="210mm"
   viewBox="0 0 1122.5196 793.70081"
   version="1.1"
   id="svg1"
   xml:space="preserve"
   sodipodi:docname="dibujo.svg"
   inkscape:export-filename="dibujo2.svg"
   inkscape:export-xdpi="96"
   inkscape:export-ydpi="96"
   xmlns:inkscape="http://www.inkscape.org/namespaces/inkscape"
   xmlns:sodipodi="http://sodipodi.sourceforge.net/DTD/sodipodi-0.dtd"
   xmlns="http://www.w3.org/2000/svg"
   xmlns:svg="http://www.w3.org/2000/svg"><sodipodi:namedview
     id="namedview1"
     pagecolor="#ffffff"
     bordercolor="#000000"
     borderopacity="0.25"
     inkscape:showpageshadow="2"
     inkscape:pageopacity="0.0"
     inkscape:pagecheckerboard="0"
     inkscape:deskcolor="#d1d1d1"
     inkscape:document-units="mm"
     inkscape:zoom="1.4379101"
     inkscape:cx="559.49257"
     inkscape:cy="398.84275"
     inkscape:window-width="1920"
     inkscape:window-height="1009"
     inkscape:window-x="1912"
     inkscape:window-y="-8"
     inkscape:window-maximized="1"
     inkscape:current-layer="layer1"><inkscape:page
       x="0"
       y="0"
       width="1122.5197"
       height="793.70081"
       id="page2"
       margin="0"
       bleed="0" /></sodipodi:namedview><defs
     id="defs1" /><g
     inkscape:label="Capa 1"
     inkscape:groupmode="layer"
     id="layer1"
     transform="translate(42.140923,-8.5207642)"
     style="fill:#000000;fill-opacity:1;stroke:none;stroke-width:1.00157;stroke-dasharray:none;stroke-opacity:1;paint-order:markers stroke fill"><g
       id="g7"
       transform="translate(-18.686884,3.7713799)"
       style="opacity:1;fill:#000000;fill-opacity:1;stroke:none;stroke-width:1.00157;stroke-dasharray:none;stroke-opacity:1;paint-order:markers stroke fill"
       inkscape:label="E"><path
         id="rect4-2-8-1"
         style="opacity:1;fill:#000000;fill-opacity:1;fill-rule:evenodd;stroke:none;stroke-width:1.00157;stroke-dasharray:none;stroke-opacity:1;paint-order:markers stroke fill"
         d="m 434.38146,467.90908 -6.4587,11.29759 105.84671,-0.092 -0.22459,-11.09494 z"
         sodipodi:nodetypes="ccccc" /><path
         id="rect4-2-8"
         style="opacity:1;fill:#000000;fill-opacity:1;fill-rule:evenodd;stroke:none;stroke-width:1.00157;stroke-dasharray:none;stroke-opacity:1;paint-order:markers stroke fill"
         d="m 448.88236,375.95743 -5.6365,11.29759 92.37229,-0.092 -0.19599,-11.09494 z"
         sodipodi:nodetypes="ccccc" /><path
         id="rect4-2-8-9"
         style="opacity:1;fill:#000000;fill-opacity:1;fill-rule:evenodd;stroke:none;stroke-width:1.00157;stroke-dasharray:none;stroke-opacity:1;paint-order:markers stroke fill"
         d="m 426.16858,422.38863 -4.46628,11.29759 109.49784,-0.092 -0.23734,-11.09494 z"
         sodipodi:nodetypes="ccccc" /></g><g
       id="g10"
       inkscape:label="V2"
       style="fill:#000000;fill-opacity:1;stroke:none;stroke-width:1.00157;stroke-dasharray:none;stroke-opacity:1;paint-order:markers stroke fill"><path
         id="rect4-2-5"
         style="opacity:1;fill:#000000;fill-opacity:1;fill-rule:evenodd;stroke:none;stroke-width:1.00157;stroke-dasharray:none;stroke-opacity:1;paint-order:markers stroke fill"
         d="m 399.21963,379.97283 12.6757,0.25339 -44.64399,102.75183 -46.02191,-103.34089 13.02745,0.1936 32.84218,71.89553 z"
         sodipodi:nodetypes="ccccccc" /></g><g
       id="g8"
       transform="matrix(1.4198915,0,0,1.4198915,-78.937671,-206.76734)"
       style="fill:#000000;fill-opacity:1;stroke:none;stroke-width:0.705388;stroke-dasharray:none;stroke-opacity:1;paint-order:markers stroke fill"
       inkscape:label="V1"
       inkscape:export-filename="g8.svg"
       inkscape:export-xdpi="96"
       inkscape:export-ydpi="96"><path
         id="rect4"
         style="opacity:1;fill:#000000;fill-opacity:1;fill-rule:evenodd;stroke:none;stroke-width:0.705388;stroke-dasharray:none;stroke-opacity:1;paint-order:markers stroke fill"
         d="m 159.38818,376.61515 9.68045,0.10866 50.03288,98.53076 -4.32922,10.51874 z"
         sodipodi:nodetypes="ccccc" /><path
         id="rect4-7"
         style="opacity:1;fill:#000000;fill-opacity:1;fill-rule:evenodd;stroke:none;stroke-width:0.705388;stroke-dasharray:none;stroke-opacity:1;paint-order:markers stroke fill"
         d="m 176.71128,376.45947 8.52448,0.095 44.05833,86.19661 -3.81225,9.202 z"
         sodipodi:nodetypes="ccccc" /><path
         id="rect4-7-2"
         style="opacity:1;fill:#000000;fill-opacity:1;fill-rule:evenodd;stroke:none;stroke-width:0.705388;stroke-dasharray:none;stroke-opacity:1;paint-order:markers stroke fill"
         d="m 275.76798,376.62038 -10.05709,0.0877 -26.51951,53.28498 4.9944,7.9696 z"
         sodipodi:nodetypes="ccccc" /><path
         id="rect4-7-2-4"
         style="opacity:1;fill:#000000;fill-opacity:1;fill-rule:evenodd;stroke:none;stroke-width:0.705388;stroke-dasharray:none;stroke-opacity:1;paint-order:markers stroke fill"
         d="m 259.00955,376.83013 -10.0571,0.0877 -26.5195,53.28498 14.29609,21.44402 1.89499,-7.22567 -7.41758,-11.86533 z"
         sodipodi:nodetypes="ccccccc" /></g><g
       id="g13"
       inkscape:label="O"
       style="fill:#000000;fill-opacity:1;stroke:none;stroke-width:1.00157;stroke-dasharray:none;stroke-opacity:1;paint-order:markers stroke fill"><path
         id="path6"
         style="opacity:0.96627;fill:#000000;fill-opacity:1;fill-rule:evenodd;stroke:none;stroke-width:1.00157;stroke-dasharray:none;stroke-opacity:1;paint-order:markers stroke fill"
         d="m 661.17214,374.29836 a 54.339493,54.339493 0 0 0 -54.33984,54.33984 54.339493,54.339493 0 0 0 54.33984,54.33985 54.339493,54.339493 0 0 0 54.33789,-54.33985 54.339493,54.339493 0 0 0 -54.33789,-54.33984 z m -1.07422,12.17773 a 42.783131,42.783131 0 0 1 42.78321,42.78321 42.783131,42.783131 0 0 1 -42.78321,42.7832 42.783131,42.783131 0 0 1 -42.7832,-42.7832 42.783131,42.783131 0 0 1 42.7832,-42.78321 z" /></g><g
       id="g9"
       transform="matrix(1.1267079,0,0,1.1267079,-177.15127,-47.320608)"
       style="opacity:1;fill:#000000;fill-opacity:1;stroke:none;stroke-width:0.888939;stroke-dasharray:none;stroke-opacity:1;paint-order:markers stroke fill"
       inkscape:label="55"><path
         id="rect7"
         style="opacity:1;fill:#000000;fill-opacity:1;fill-rule:evenodd;stroke:none;stroke-width:0.888939;stroke-dasharray:none;stroke-opacity:1;paint-order:markers stroke fill"
         d="m 895.64051,362.68795 h 48.33403 v 12.8659 l -36.14381,0.72108 -4.76186,28.91009 c 0,0 22.51175,-5.82671 35.94825,7.60979 6.13849,6.13849 9.92325,16.81626 8.63865,26.22331 -1.27672,9.34944 -6.54517,21.83808 -21.25699,28.83761 -18.27686,8.69567 -42.01556,-5.59313 -42.01556,-5.59313 l 3.45712,-10.82811 c 0,0 19.31034,8.64293 29.37825,6.23169 6.19215,-1.48301 13.40381,-5.48498 17.06464,-17.91752 4.15299,-24.73542 -27.3661,-29.1292 -37.49495,-18.76541 -7.75772,-2.07868 -8.28728,-3.70295 -8.28728,-3.70295 1.97109,-18.17785 5.59985,-36.37309 7.13951,-54.59235 z"
         sodipodi:nodetypes="cccccsssccscccc" /><path
         id="rect7-7"
         style="opacity:1;fill:#000000;fill-opacity:1;fill-rule:evenodd;stroke:none;stroke-width:0.888939;stroke-dasharray:none;stroke-opacity:1;paint-order:markers stroke fill"
         d="m 827.20718,362.68795 h 48.334 v 12.8659 l -36.1438,0.72108 -4.7619,28.91009 c 0,0 22.5118,-5.82671 35.9483,7.60979 6.1385,6.13849 9.9233,16.81626 8.6387,26.22331 -1.2768,9.34944 -6.5452,21.83808 -21.257,28.83761 -18.2769,8.69567 -42.0156,-5.59313 -42.0156,-5.59313 l 3.45712,-10.82811 c 0,0 19.31038,8.64293 29.37828,6.23169 6.1921,-1.48301 13.4038,-5.48498 17.0646,-17.91752 4.153,-24.73542 -27.3661,-29.1292 -37.4949,-18.76541 -7.75776,-2.07868 -8.28732,-3.70295 -8.28732,-3.70295 1.97109,-18.17785 5.59982,-36.37309 7.13952,-54.59235 z"
         sodipodi:nodetypes="cccccsssccscccc" /></g><g
       id="g15"
       inkscape:label="I"
       transform="matrix(1,0,0,0.86271279,0,66.306707)"
       style="fill:#000000;fill-opacity:1;stroke:none;stroke-width:1.07833;stroke-dasharray:none;stroke-opacity:1;paint-order:markers stroke fill"><path
         id="rect4-2"
         style="opacity:1;fill:#000000;fill-opacity:1;fill-rule:evenodd;stroke:none;stroke-width:1.07833;stroke-dasharray:none;stroke-opacity:1;paint-order:markers stroke fill"
         d="m 299.93945,385.79471 11.84585,-24.604 0.50483,121.78734 -12.83358,-0.22283 z"
         sodipodi:nodetypes="ccccc" /></g><g
       id="g14"
       inkscape:label="R"
       style="fill:#000000;fill-opacity:1;stroke:none;stroke-width:1.00157;stroke-dasharray:none;stroke-opacity:1;paint-order:markers stroke fill"><path
         id="rect4-2-8-4"
         style="opacity:1;fill:#000000;fill-opacity:1;fill-rule:evenodd;stroke:none;stroke-width:1.00157;stroke-dasharray:none;stroke-opacity:1;paint-order:markers stroke fill"
         d="m 554.54727,378.21245 c -7.02086,0.0169 -14.82405,0.21878 -23.38672,0.0879 l 0.0918,104.28125 11.61524,-0.2207 -0.041,-41.21485 20.76367,0.0234 25.90821,41.8086 12.84961,-0.0977 -24.78516,-42.90039 c 0,0 30.19611,-10.79878 18.38477,-42.98243 -6.32163,-17.22522 -20.33784,-18.83583 -41.40039,-18.78515 z m -11.70899,12.9043 31.52735,0.0801 c 7.18392,0.0179 12.19921,10.01647 12.19921,18.17579 0,9.93829 -6.61226,18.21134 -13.73632,18.16992 l -29.9043,-0.17383 z" /></g></g></svg>
