<?xml version="1.0" encoding="UTF-8" standalone="no"?>
<!-- Created with Inkscape (http://www.inkscape.org/) -->

<svg
   width="400"
   height="400"
   viewBox="0 0 400 400"
   version="1.1"
   id="svg1"
   xml:space="preserve"
   inkscape:export-filename="logoViveroBlanco.svg"
   inkscape:export-xdpi="96"
   inkscape:export-ydpi="96"
   xmlns:inkscape="http://www.inkscape.org/namespaces/inkscape"
   xmlns:sodipodi="http://sodipodi.sourceforge.net/DTD/sodipodi-0.dtd"
   xmlns="http://www.w3.org/2000/svg"
   xmlns:svg="http://www.w3.org/2000/svg"><sodipodi:namedview
     id="namedview1"
     pagecolor="#ffffff"
     bordercolor="#000000"
     borderopacity="0.25"
     inkscape:showpageshadow="2"
     inkscape:pageopacity="0.0"
     inkscape:pagecheckerboard="0"
     inkscape:deskcolor="#d1d1d1"
     inkscape:document-units="px" /><defs
     id="defs1" /><g
     inkscape:label="Capa 1"
     inkscape:groupmode="layer"
     id="layer1"><path
       id="rect1"
       style="opacity:0.915621;fill:#000000;fill-opacity:1;stroke-width:13.2234"
       d="m 143.70961,110.10998 c 57.10015,-9.04721 17.25413,62.45477 56.26055,109.2871 9.32696,11.19824 26.82749,-36.78154 26.82749,-36.78154 0,0 32.21717,-40.34049 45.94142,-97.879416 1.09733,-4.600566 13.1896,-1.502849 13.04079,-0.376192 -2.98183,22.575438 -26.57926,70.147788 -34.02957,84.645828 -21.35133,20.37161 -24.34591,58.22684 -24.34591,58.22684 0,0 -5.81207,13.33729 -7.0205,23.06012 -1.20843,9.72283 1.56109,19.82815 0.75018,26.18725 -0.58007,4.54887 -10.98558,2.3846 -8.44062,23.79691 0.16494,27.21621 -34.28408,47.09112 -87.51878,-138.52027 -7.41937,-25.86883 -13.19191,-36.49008 -10.10746,-42.40967 3.08444,-5.91959 15.02588,-7.13753 28.64241,-9.23696 z"
       sodipodi:nodetypes="cscssccsscssc" /></g></svg>
