<svg xmlns="http://www.w3.org/2000/svg" viewBox="0 15.949999809265137 264 36.89999771118164" data-asc="1.05"><g fill="#000000"><g fill="#000000" transform="translate(0, 0)"><path d="M11.80 17.10L14.80 41.45L26.35 17.10L38.15 17.10L20 52.50L5.65 52.50L0 17.10L11.80 17.10ZM51.75 17.10L45.50 52.50L34.40 52.50L40.65 17.10L51.75 17.10ZM66.05 17.10L69.05 41.45L80.60 17.10L92.40 17.10L74.25 52.50L59.90 52.50L54.25 17.10L66.05 17.10ZM104.45 25.90L103.70 30.30L114.70 30.30L113.20 38.65L102.20 38.65L101.30 43.65L113.80 43.65L112.25 52.50L88.65 52.50L94.90 17.10L118.50 17.10L116.95 25.90L104.45 25.90ZM139.20 17.10Q144.90 17.10 147.85 19.65Q150.80 22.20 150.80 26.45Q150.80 27.70 150.60 28.70Q149.95 32.30 147.50 35.02Q145.05 37.75 141.15 38.95L146.45 52.50L134.25 52.50L129.80 39.80L127.55 52.50L116.45 52.50L122.70 17.10L139.20 17.10M131.10 32.40L135.50 32.40Q137.10 32.40 138.03 31.67Q138.95 30.95 139.25 29.40Q139.30 29.15 139.30 28.75Q139.30 27.65 138.60 27.02Q137.90 26.40 136.55 26.40L132.15 26.40L131.10 32.40ZM167.30 52.85Q162.80 52.85 159.40 51Q156 49.15 154.15 45.77Q152.30 42.40 152.30 38.05Q152.30 31.70 154.92 26.82Q157.55 21.95 162.27 19.23Q167 16.50 173.15 16.50Q177.75 16.50 181.17 18.32Q184.60 20.15 186.45 23.47Q188.30 26.80 188.30 31.15Q188.30 37.45 185.67 42.40Q183.05 47.35 178.27 50.10Q173.50 52.85 167.30 52.85M169 42.50Q171.60 42.50 173.52 41.13Q175.45 39.75 176.45 37.48Q177.45 35.20 177.45 32.55Q177.45 29.80 175.97 28.27Q174.50 26.75 171.75 26.75Q169.15 26.75 167.20 28.10Q165.25 29.45 164.22 31.72Q163.20 34 163.20 36.65Q163.20 39.40 164.67 40.95Q166.15 42.50 169 42.50ZM229.30 25.70L214.80 25.70L214.05 29.90Q216.45 28.05 220.25 28.05Q224.55 28.05 226.70 30.52Q228.85 33 228.85 37Q228.85 38.25 228.60 39.85Q227.50 45.85 223.55 49.17Q219.60 52.50 213.70 52.50Q208.05 52.50 204.95 49.98Q201.85 47.45 201.85 43.25Q201.85 42.20 202.10 40.80L212.90 40.80L212.85 41.25Q212.85 41.95 213.30 42.48Q213.75 43 214.85 43Q216.10 43 216.85 42.10Q217.60 41.20 217.90 39.65Q218 39.05 218 38.80Q218 37.75 217.43 37.23Q216.85 36.70 215.80 36.70Q214.75 36.70 214.13 37.20Q213.50 37.70 213.35 38.35L202.55 38.35L206.50 15.95L231 15.95L229.30 25.70ZM262.30 25.70L247.80 25.70L247.05 29.90Q249.45 28.05 253.25 28.05Q257.55 28.05 259.70 30.52Q261.85 33 261.85 37Q261.85 38.25 261.60 39.85Q260.50 45.85 256.55 49.17Q252.60 52.50 246.70 52.50Q241.05 52.50 237.95 49.98Q234.85 47.45 234.85 43.25Q234.85 42.20 235.10 40.80L245.90 40.80L245.85 41.25Q245.85 41.95 246.30 42.48Q246.75 43 247.85 43Q249.10 43 249.85 42.10Q250.60 41.20 250.90 39.65Q251 39.05 251 38.80Q251 37.75 250.43 37.23Q249.85 36.70 248.80 36.70Q247.75 36.70 247.13 37.20Q246.50 37.70 246.35 38.35L235.55 38.35L239.50 15.95L264 15.95L262.30 25.70Z"/></g><g fill="#000000" transform="translate(0, 67.5)"><path d=""/></g></g></svg>