<svg xmlns="http://www.w3.org/2000/svg" viewBox="0 12.699999809265137 279 36.39999771118164" data-asc="0.968"><g fill="#000000"><g fill="#000000" transform="translate(0, 0)"><path d="M7.95 48.40L0 13.40L10.15 13.40L16.85 43.75L10.40 43.75L29.45 13.40L39.65 13.40L17.70 48.40L7.95 48.40ZM35.50 48.40L42.50 13.40L52.40 13.40L45.40 48.40L35.50 48.40ZM63.20 48.40L55.25 13.40L65.40 13.40L72.10 43.75L65.65 43.75L84.70 13.40L94.90 13.40L72.95 48.40L63.20 48.40ZM104.10 26.95L120.35 26.95L118.90 34.35L102.65 34.35L104.10 26.95M102.05 40.75L120.40 40.75L118.80 48.40L90.75 48.40L97.75 13.40L125.15 13.40L123.60 21.05L105.95 21.05L102.05 40.75ZM124.35 48.40L131.35 13.40L146.30 13.40Q153.05 13.40 156.73 16.35Q160.40 19.30 160.40 24.55Q160.40 28.95 158.28 32.22Q156.15 35.50 152.25 37.30Q148.35 39.10 143.05 39.10L131.70 39.10L136.95 34.85L134.25 48.40L124.35 48.40M146.30 48.40L139.15 35.65L149.40 35.65L156.65 48.40L146.30 48.40M136.70 36L133.25 31.45L143.50 31.45Q146.80 31.45 148.60 29.90Q150.40 28.35 150.40 25.50Q150.40 23.30 148.95 22.25Q147.50 21.20 144.90 21.20L135.35 21.20L140.65 16.50L136.70 36ZM180.25 49.10Q174.85 49.10 170.95 47.13Q167.05 45.15 164.95 41.70Q162.85 38.25 162.85 33.70Q162.85 29.10 164.45 25.27Q166.05 21.45 168.95 18.62Q171.85 15.80 175.88 14.25Q179.90 12.70 184.70 12.70Q190.10 12.70 194 14.67Q197.90 16.65 200 20.10Q202.10 23.55 202.10 28.10Q202.10 32.70 200.50 36.52Q198.90 40.35 196 43.17Q193.10 46 189.08 47.55Q185.05 49.10 180.25 49.10M181.10 40.90Q183.70 40.90 185.73 39.95Q187.75 39 189.18 37.27Q190.60 35.55 191.35 33.35Q192.10 31.15 192.10 28.70Q192.10 26.35 191.13 24.60Q190.15 22.85 188.33 21.87Q186.50 20.90 183.85 20.90Q181.30 20.90 179.25 21.85Q177.20 22.80 175.78 24.52Q174.35 26.25 173.60 28.45Q172.85 30.65 172.85 33.10Q172.85 35.40 173.83 37.17Q174.80 38.95 176.63 39.92Q178.45 40.90 181.10 40.90ZM229.25 49.10Q225.45 49.10 222.03 48.13Q218.60 47.15 216.10 45.25L220.70 38.20Q222.55 39.60 224.98 40.35Q227.40 41.10 229.90 41.10Q232.95 41.10 234.58 40.02Q236.20 38.95 236.20 37.05Q236.20 35.55 234.95 34.70Q233.70 33.85 230.60 33.85L220.55 33.85L226.40 13.40L248.65 13.40L247.10 21.05L228.35 21.05L234.30 16.70L230.35 30.50L226.20 26.15L233.10 26.15Q239.55 26.15 242.88 28.67Q246.20 31.20 246.20 35.90Q246.20 39.95 244.00 42.92Q241.80 45.90 237.98 47.50Q234.15 49.10 229.25 49.10ZM259.60 49.10Q255.80 49.10 252.38 48.13Q248.95 47.15 246.45 45.25L251.05 38.20Q252.90 39.60 255.33 40.35Q257.75 41.10 260.25 41.10Q263.30 41.10 264.93 40.02Q266.55 38.95 266.55 37.05Q266.55 35.55 265.30 34.70Q264.05 33.85 260.95 33.85L250.90 33.85L256.75 13.40L279 13.40L277.45 21.05L258.70 21.05L264.65 16.70L260.70 30.50L256.55 26.15L263.45 26.15Q269.90 26.15 273.23 28.67Q276.55 31.20 276.55 35.90Q276.55 39.95 274.35 42.92Q272.15 45.90 268.33 47.50Q264.50 49.10 259.60 49.10Z"/></g></g></svg>